<svg width="1432" height="1027" viewBox="0 0 1432 1027" fill="none" xmlns="http://www.w3.org/2000/svg">
<g clip-path="url(#clip0)">
<path d="M634.173 806.8H555.071C552.671 806.8 550.571 804.8 550.571 802.4V801.9C550.571 799.5 552.671 797.5 555.271 797.5H628.571C672.971 797.5 717.371 797.5 761.671 797.5H829.671C832.071 797.5 834.171 799.5 834.171 801.9V802.4C834.171 804.8 832.171 806.8 829.671 806.8H733.17L759.771 855.6C778.671 890.4 797.571 925.1 816.571 959.9L847.871 1017.3C848.971 1019.3 848.071 1021.9 845.971 1023.1L845.571 1023.3C843.471 1024.4 840.771 1023.8 839.771 1021.9L722.671 806.8H644.671L527.571 1021.9C526.571 1023.8 523.871 1024.5 521.771 1023.3L521.371 1023.1C519.271 1021.9 518.371 1019.3 519.471 1017.3L550.771 959.9C569.671 925.1 588.571 890.4 607.571 855.6L634.173 806.8ZM550.871 767.612V709.469C550.871 665.124 550.871 620.882 550.871 576.639V523.8C550.871 515.516 557.587 508.8 565.871 508.8H729.071C737.356 508.8 744.071 515.516 744.071 523.8V767.784C744.071 776.068 737.356 782.784 729.071 782.784C729.066 782.784 729.061 782.784 729.056 782.784L565.856 782.612C557.578 782.604 550.871 775.89 550.871 767.612Z" fill="#D8DEED"/>
</g>
<g clip-path="url(#clip1)">
<path d="M1395.7 802.613V802.8C1395.7 805.2 1393.6 807.2 1391.2 807.2H1315.7L1342.3 856C1361.3 890.8 1380.2 925.5 1399.1 960.3L1430.4 1017.7C1431.5 1019.7 1430.6 1022.3 1428.5 1023.5L1428.1 1023.7C1426 1024.9 1423.3 1024.2 1422.3 1022.3L1305.2 807.2H1227.2L1110.1 1022.3C1109.1 1024.2 1106.4 1024.8 1104.3 1023.7L1103.9 1023.5C1101.8 1022.3 1100.9 1019.7 1102 1017.7L1133.3 960.3C1152.3 925.5 1171.2 890.8 1190.1 856L1216.7 807.2H1116.6C1114.1 807.2 1112.1 805.2 1112.1 802.8V802.3C1112.1 799.9 1114.2 797.9 1116.6 797.9H1184.6C1228.9 797.9 1273.3 797.9 1317.7 797.9H1386.87L1395.3 729.7C1401.1 683.3 1406.8 636.8 1412.6 590.3L1422.1 513.5C1422.4 510.8 1424.7 508.8 1427.2 509.1L1427.7 509.2C1430.1 509.5 1431.8 512 1431.5 514.5L1395.8 802.1C1395.77 802.275 1395.74 802.446 1395.7 802.613Z" fill="#D8DEED"/>
<path d="M1395.7 802.613V802.8C1395.7 805.2 1393.6 807.2 1391.2 807.2H1315.7L1342.3 856C1361.3 890.8 1380.2 925.5 1399.1 960.3L1430.4 1017.7C1431.5 1019.7 1430.6 1022.3 1428.5 1023.5L1428.1 1023.7C1426 1024.9 1423.3 1024.2 1422.3 1022.3L1305.2 807.2H1227.2L1110.1 1022.3C1109.1 1024.2 1106.4 1024.8 1104.3 1023.7L1103.9 1023.5C1101.8 1022.3 1100.9 1019.7 1102 1017.7L1133.3 960.3C1152.3 925.5 1171.2 890.8 1190.1 856L1216.7 807.2H1116.6C1114.1 807.2 1112.1 805.2 1112.1 802.8V802.3C1112.1 799.9 1114.2 797.9 1116.6 797.9H1184.6C1228.9 797.9 1273.3 797.9 1317.7 797.9H1386.87L1395.3 729.7C1401.1 683.3 1406.8 636.8 1412.6 590.3L1422.1 513.5C1422.4 510.8 1424.7 508.8 1427.2 509.1L1427.7 509.2C1430.1 509.5 1431.8 512 1431.5 514.5L1395.8 802.1C1395.77 802.275 1395.74 802.446 1395.7 802.613Z" fill="#D8DEED"/>
</g>
<path d="M876.7 1024H717.8C715.3 1024 713.3 1022 713.3 1019.5C713.3 1017 715.3 1015 717.8 1015H876.7C879.2 1015 881.2 1017 881.2 1019.5C881.2 1022 879.2 1024 876.7 1024ZM585.5 1024C583 1024 581 1022.27 581 1020.19V1018.81C581 1016.73 583.1 1015 585.5 1015H688C690.5 1015 692.5 1016.73 692.5 1018.81V1020.19C692.5 1022.27 690.4 1024 688 1024H585.5Z" fill="#FF9900"/>
<path d="M878.273 1015.28C877.784 1015.1 877.254 1015 876.7 1015H717.8C717.076 1015 716.394 1015.17 715.79 1015.47C715.666 1015.03 715.6 1014.58 715.6 1014.1L719.1 958.8C718.9 955.8 721.2 953.5 724.1 953.4L787.8 953C788.9 953 789.9 953.3 790.8 954C802.2 966.2 813.1 973 821 977C827.1 980.1 847.5 988.7 856.7 992.9C861.4 995 865.9 997.5 870.3 1000.2C870.6 1000.4 870.8 1000.5 871.1 1000.8C873.4 1002.9 876.9 1006.7 878.2 1011.2C878.4 1011.8 878.4 1012.3 878.5 1012.9C878.6 1013.4 878.5 1013.9 878.5 1014.4V1014.5C878.444 1014.77 878.368 1015.03 878.273 1015.28ZM688.576 1015.03C688.387 1015.01 688.195 1015 688 1015H585.5C585.496 1015 585.491 1015 585.487 1015L608.7 953.1L680.3 962.8L688.576 1015.03Z" fill="#474961"/>
<path d="M714.032 780.519C710.574 783.029 707.558 785.212 704.985 787.07L703.7 808.302C703.1 819.53 702.4 829.392 701.6 838.082C701 844.916 693.3 922.344 690.5 950.757C689.9 957.201 685.6 962.669 679.7 964.426C670.8 967.16 604 964.036 601.5 962.864C598.3 961.399 596.6 960.716 594.9 959.056C588.9 953.393 589.3 944.41 589.2 941.09C588.6 915.997 586.8 840.523 586.8 787.7C586.8 787.527 586.8 787.353 586.8 787.18C580.207 781.521 574.379 773.009 569.815 762.44C562.877 746.472 558.643 725.705 558.526 703.163C558.526 702.885 558.526 689.318 558.526 662.462C558.526 662.358 558.526 662.358 558.526 662.254C558.643 654.844 565.699 649 574.049 649H666.361C679.179 649.417 691.88 649.835 704.698 650.252C724.649 650.78 753.033 651.555 789.851 652.576C804.247 652.976 817.252 661.277 823.675 674.167C826.735 680.308 828.595 685.356 829.254 689.311C833.213 696.304 835.402 704.475 835.2 713.176C835.2 713.371 835.2 713.469 835.2 713.664C833.6 793.841 814.9 908.06 813.6 946.685C813.5 948.148 813.1 951.367 811 954.781C804.5 965.218 789.3 962.877 753.8 963.755C723.6 964.535 711.4 966.876 705.2 958.293C701.8 953.611 701.9 948.246 702 945.808C704.805 890.284 709.061 834.168 714.032 780.519Z" fill="#FF9900"/>
<path opacity="0.176986" d="M713.998 780.888C710.53 783.404 707.519 785.584 704.963 787.427L708.8 724.04C708.9 719.646 709.4 693.088 689.5 676.197C675 663.992 657.4 663.211 645.7 662.723C627.7 661.942 613.7 667.019 611 667.995C607.6 669.265 605.9 669.948 604.2 670.827C584.8 680.981 586.3 729.801 586.5 738.686C586.697 749.742 586.797 766.857 586.8 786.767C580.401 781.111 574.743 772.755 570.289 762.44C563.351 746.472 559.118 725.705 559 703.163C559 702.885 559 689.318 559 662.462C559 662.358 559 662.358 559 662.254C559.118 654.844 566.173 649 574.523 649H666.836C679.654 649.417 692.354 649.835 705.172 650.252C725.123 650.78 753.507 651.555 790.325 652.576C804.721 652.976 817.726 661.277 824.149 674.167C827.518 680.928 829.432 686.364 829.891 690.476C822.271 676.053 807.252 666.317 790 666.65C781.6 666.845 773.3 667.04 764.9 667.235C742.4 667.82 723.7 685.28 721.3 708.104C718.761 731.632 716.302 755.995 713.998 780.888Z" fill="#444444"/>
<path d="M688.673 441.971C696.497 442.115 708.809 443.597 720.971 450.665C723.068 451.862 726.163 453.857 729.557 456.75C732.452 459.244 740.938 467.524 749.025 490.867C751.92 499.047 760.406 515.009 765.298 523.787C766.895 526.68 764.998 530.272 761.604 530.571C750.904 531.339 737.706 535.73 725.235 535.754C726.262 554.415 726.986 576.673 727.261 601.499C727.261 601.499 728.858 631.045 719.674 640.622C718.084 642.307 688.258 640.553 656.578 641.559C622.606 642.638 586.415 646.139 577.995 637.312C564.377 623.037 572.162 619.171 584.66 537.852C582.702 538.053 580.879 538.231 579.256 538.379C566.633 539.579 540.194 538.779 527.472 538.279C524.093 538.18 521.906 534.38 523.297 531.18C527.472 521.482 534.827 503.984 537.014 495.085C543.276 469.689 551.128 460.39 553.811 457.591C556.893 454.391 559.985 452.214 561.862 450.691C568.155 445.588 588 441.906 621.399 439.645C635.793 434.742 652.228 436.15 662.868 437.098C670.307 437.773 679.687 438.608 688.673 441.971Z" fill="#2B3FF0"/>
<path opacity="0.176986" d="M689 442C696.862 442.257 708.651 443.911 720.304 450.688C722.404 451.888 725.504 453.888 728.904 456.788C731.804 459.288 740.304 467.588 748.404 490.988C751.304 499.188 760.404 514.971 765.304 523.771C766.904 526.671 765.004 530.271 761.604 530.571C758.479 530.795 754.961 531.447 751.616 532C750.29 532.219 746.632 532.645 745.002 532.988C737.121 534.651 732.529 535.754 725.182 535.754C725.144 535.754 725.107 535.754 725.069 535.754C723.486 506.979 721.185 486.743 718.701 478.805C717.001 473.405 714.536 467.206 714.536 467.206C713.336 463.706 711.401 460.105 707.501 455.205C702.244 448.676 695.747 444.61 689 442ZM665.462 452.663C663.662 463.263 660.362 466.392 660.362 466.392C652.762 461.992 625.662 448.263 628.162 440.763C628.362 440.263 628.762 439.263 631.362 437.663C641.162 431.663 653.162 434.563 657.362 435.763C657.362 435.763 676.662 433.563 680.362 444.863C684.062 456.163 679.662 464.163 679.662 464.163C676.462 462.229 671.729 458.396 665.462 452.663Z" fill="#444444"/>
<path d="M727.137 616.353L725.182 535.755L751.678 532L759.775 630.831C760.469 631.192 761.143 631.548 761.797 631.898C767.527 634.969 772.277 640.561 776.045 648.672C776.235 649.081 776.331 649.528 776.324 649.979C776.3 651.636 774.938 652.96 773.281 652.936L562.695 649.888C512.423 639.92 526.097 571.73 535.941 538.597C549.757 539.029 569.273 539.376 579.6 538.4C589.358 537.513 606.304 535.557 616.268 534.065L598.4 587.6C646.383 589.981 693.503 603.347 727.137 616.353ZM671.052 429.254L670.6 447.7C651.471 454.755 637.9 443.9 637.9 443.9C637.9 443.9 638.618 430.152 640.054 402.657C639.822 402.159 639.596 401.633 639.378 401.076C637.578 396.576 631.099 381.801 632.499 376.701C632.756 375.624 627.412 359.596 635.238 351.512C642.669 343.834 663.272 344.051 664.1 344.1C667.6 344.2 671.1 344.1 674.9 343.3C675.3 343.3 675.7 343.2 676.1 343.2C679.5 342.9 698.6 342 708.4 356.2C709.3 357.4 710.1 358.7 710.8 360.3C712.3 364 713 368 712.7 372L711.3 389.8C711.1 391.6 710.8 393.4 710.4 395.1C707.5 407.7 702.8 418 697.8 424.5C694.1 429.4 690.1 432.2 686.6 432.3C685.6 432.4 680.2 432.3 673.9 430.4C673.49 430.263 673.594 430.36 671.052 429.254Z" fill="#F2A98A"/>
<path d="M618.775 533.898C618.445 534.658 617.561 535.006 616.802 534.676C616.042 534.345 615.694 533.462 616.024 532.702C617.96 528.249 618.738 525.761 620.238 519.263C620.424 518.456 621.23 517.952 622.037 518.138C622.844 518.325 623.348 519.13 623.161 519.937C621.623 526.603 620.791 529.261 618.775 533.898ZM599.459 585.507C600.284 585.429 601.015 586.034 601.093 586.859C601.171 587.684 600.565 588.416 599.741 588.493C599.546 588.512 599.165 588.555 598.624 588.627C597.714 588.749 596.698 588.909 595.602 589.114C592.476 589.696 589.352 590.509 586.45 591.584C584.737 592.219 583.152 592.928 581.723 593.714C580.997 594.114 580.085 593.849 579.685 593.123C579.286 592.397 579.551 591.485 580.277 591.086C581.844 590.224 583.562 589.455 585.408 588.771C588.486 587.63 591.771 586.776 595.053 586.164C596.2 585.95 597.267 585.782 598.226 585.654C598.564 585.608 598.864 585.571 599.125 585.542C599.284 585.524 599.397 585.513 599.459 585.507Z" fill="#482D1F"/>
<path opacity="0.2" d="M759.601 630.934C751.348 626.62 740.207 621.546 726.956 616.41L725 535.754L751.496 532L759.601 630.934Z" fill="#8C2A00"/>
<path d="M671.08 429.282L670.8 439.5L656.994 422.932C657.19 423.029 657.392 423.128 657.6 423.229C659.6 424.229 662.1 425.329 665.3 426.729C668.103 427.978 669.903 428.772 671.08 429.282Z" fill="#482D1F"/>
<path d="M659.99 381.723L659.9 379.8C659.9 379.8 659.5 376.2 657 372.6C656.8 372.4 655.1 370.2 652.5 369.1C647.8 367.3 641.6 369.4 638.2 373.7C634.6 378.1 634.6 384 636.5 388.5C638.4 393 642.1 395.1 643.4 395.7L649.2 397.5L649.225 397.489C644.157 404.921 639.743 411.4 639.743 411.4C639.743 411.4 631.4 403.7 627.7 397.6C625.9 394.6 619.5 387.3 618.4 375.8C618.1 372 616.9 359.1 625.5 349.6C628.5 346.3 631.9 344.7 633.3 344C641.2 340.5 647 342.6 662.2 342.9C663.4 342.9 665.4 343 668 342.9C672.7 342.8 676 342.6 676.9 342.6C684.4 342.3 700.7 344.6 707.9 355.7C708.3 356.5 708.8 357.2 709.2 357.8C707.1 358.5 704.8 359.8 702 360.3C694.4 361.5 687.9 360 684 358.6C676.4 365.8 668.7 372.9 661.1 380.1C660.753 380.607 660.381 381.15 659.99 381.723Z" fill="#482D1F"/>
<path d="M705.526 392.928C705.826 391.728 707.026 390.828 708.226 391.028C709.026 391.128 709.626 391.728 709.926 393.128C710.226 396.628 706.426 401.028 705.326 398.928C704.626 397.528 705.226 394.628 705.526 392.928ZM684.4 390.2C684.7 389 685.9 388.1 687.1 388.3C687.9 388.4 688.5 389 688.8 390.4C689.1 393.9 685.3 398.3 684.2 396.2C683.4 394.8 684 391.9 684.4 390.2Z" fill="#482D1F"/>
<path d="M698.7 393.61L698.8 403.61C698.8 403.648 698.648 403.8 698.6 403.8C698.053 403.8 697.494 403.764 696.622 403.68C696.452 403.663 696.275 403.646 696.02 403.62C695.698 403.587 695.522 403.569 695.354 403.552C694.776 403.494 694.298 403.448 693.787 403.404C693.237 403.356 692.752 403.763 692.704 404.313C692.656 404.864 693.063 405.348 693.614 405.396C694.114 405.44 694.584 405.485 695.153 405.542C695.321 405.559 695.495 405.576 695.817 405.609C696.076 405.636 696.256 405.654 696.429 405.67C697.36 405.76 697.976 405.8 698.6 405.8C699.753 405.8 700.8 404.752 700.8 403.6L700.7 393.59C700.695 393.038 700.243 392.595 699.69 392.6C699.138 392.606 698.695 393.058 698.7 393.61Z" fill="#482D1F"/>
<path d="M691.7 411.1C691 410.8 689.3 410 689.2 409C689.2 408.8 689.1 408.5 689.3 408.4C689.8 407.9 691 408.4 692.8 408.9C696 409.7 698.6 409.9 698.6 409.9C698.6 409.9 697.6 411.5 697 411.9C695.8 413 692.7 411.6 691.7 411.1Z" fill="#482D1F"/>
<path d="M696.138 394.705C694.543 400.802 688.997 405.3 682.4 405.3C674.558 405.3 668.2 398.942 668.2 391.1C668.2 389.361 668.512 387.696 669.084 386.156L661.157 382.742C660.366 382.496 659.924 381.655 660.17 380.864C660.416 380.073 661.257 379.631 662.048 379.877L670.415 383.481C672.936 379.524 677.361 376.9 682.4 376.9C690.242 376.9 696.6 383.258 696.6 391.1C696.6 391.313 696.595 391.525 696.586 391.735L699.705 392.058C701.06 385.627 706.766 380.8 713.6 380.8C721.442 380.8 727.8 387.158 727.8 395C727.8 402.842 721.442 409.2 713.6 409.2C705.772 409.2 699.423 402.865 699.4 395.042L696.138 394.705ZM672.245 386.37C671.574 387.807 671.2 389.41 671.2 391.1C671.2 397.286 676.214 402.3 682.4 402.3C688.586 402.3 693.6 397.286 693.6 391.1C693.6 384.914 688.586 379.9 682.4 379.9C678.153 379.9 674.458 382.264 672.559 385.748C672.551 385.78 672.542 385.813 672.532 385.845C672.471 386.044 672.372 386.22 672.245 386.37ZM702.432 394.148C702.411 394.429 702.4 394.713 702.4 395C702.4 401.186 707.414 406.2 713.6 406.2C719.786 406.2 724.8 401.186 724.8 395C724.8 388.814 719.786 383.8 713.6 383.8C707.905 383.8 703.204 388.05 702.493 393.551C702.503 393.65 702.503 393.751 702.492 393.854C702.482 393.956 702.461 394.054 702.432 394.148Z" fill="#482D1F"/>
<path d="M35.8339 804.543V804.73C35.8339 807.13 37.9339 809.13 40.3339 809.13H115.835L89.2339 857.93C70.2339 892.73 51.3339 927.43 32.4339 962.23L1.13394 1019.63C0.0339355 1021.63 0.933929 1024.23 3.03394 1025.43L3.43393 1025.63C5.53394 1026.83 8.23395 1026.13 9.23395 1024.23L126.334 809.13H204.334L321.434 1024.23C322.434 1026.13 325.134 1026.73 327.234 1025.63L327.634 1025.43C329.734 1024.23 330.634 1021.63 329.534 1019.63L298.234 962.23C279.234 927.43 260.334 892.73 241.434 857.93L214.832 809.13H314.934C317.434 809.13 319.434 807.13 319.434 804.73V804.23C319.434 801.83 317.334 799.83 314.934 799.83H246.934C202.634 799.83 158.234 799.83 113.834 799.83H44.6631L36.2339 731.63C30.434 685.23 24.7339 638.73 18.9339 592.23L9.43393 515.43C9.13394 512.73 6.83392 510.73 4.33392 511.03L3.83392 511.13C1.43393 511.43 -0.266052 513.93 0.0339355 516.43L35.7339 804.03C35.7599 804.205 35.7933 804.376 35.8339 804.543Z" fill="#D8DEED"/>
<g clip-path="url(#clip2)">
<path d="M1074.45 1015H1212.4C1214.9 1015 1216.9 1017 1216.9 1019.5C1216.9 1022 1214.9 1024 1212.4 1024H1053.5H936.5C934 1024 932 1022 932 1019.5C932 1017 934 1015 936.5 1015H1074.45Z" fill="#FF9900"/>
<path d="M937.5 1015H936.5C936.211 1015 935.928 1015.03 935.654 1015.08C935.372 1014.6 935.163 1014.07 935.044 1013.5V1013.4C935.044 1012.9 934.944 1012.4 935.044 1011.9C935.144 1011.3 935.144 1010.8 935.344 1010.2C936.015 1007.88 937.741 1005.16 940.524 1002.05C942.103 1000.28 943.959 998.773 946.018 997.596C950.61 994.972 954.219 993.073 956.844 991.9C966.044 987.7 986.444 979.1 992.544 976C1000.44 972 1011.34 965.2 1022.74 953C1023.64 952.3 1024.64 952 1025.74 952L1083.1 952.4C1086 952.4 1088.3 954.8 1088.1 957.8L1092.92 984.885C1098 982.69 1102.57 980.575 1108.2 977.3C1112.9 974.6 1119.5 970.2 1126.9 963.6C1131 960 1135.2 956.4 1139.3 952.8L1201.2 952L1213.93 1015.1C1214.15 1015.14 1214.37 1015.2 1214.57 1015.28L1214.63 1015.59C1214 1015.22 1213.26 1015.01 1212.48 1015C1212.45 1015 1212.43 1015 1212.4 1015H1074.45H1051.51H937.5Z" fill="#474961"/>
<path opacity="0.176986" d="M1074.75 1015H1074.45H936.5C936.211 1015 935.928 1015.03 935.654 1015.08C935.372 1014.6 935.163 1014.07 935.044 1013.5V1013.4C935.044 1012.9 934.944 1012.4 935.044 1011.9C935.144 1011.3 935.144 1010.8 935.344 1010.2C936.015 1007.88 937.741 1005.16 940.524 1002.05C942.103 1000.28 943.959 998.773 946.018 997.596C950.61 994.972 954.219 993.073 956.844 991.9C966.044 987.7 986.444 979.1 992.544 976C1000.44 972 1011.34 965.2 1022.74 953C1023.64 952.3 1024.64 952 1025.74 952L1083.1 952.4C1086 952.4 1088.3 954.8 1088.1 957.8L1092.96 985.126C1087.64 987.417 1081.71 989.843 1073.4 993.8C1068.6 996.1 1064 998.7 1059.5 1001.6C1057.3 1003.6 1053.5 1007.7 1052.3 1012.5C1052.1 1013.3 1052.1 1014.1 1052 1014.8C1052 1014.87 1052.04 1014.93 1052.11 1015H1075.05H1074.75ZM1214.63 1015.59C1214 1015.22 1213.26 1015.01 1212.48 1015L1213 1015C1213.55 1015 1214.08 1015.1 1214.57 1015.28L1214.63 1015.59Z" fill="#474961"/>
<path d="M1070.61 652.166C1072.33 651.892 1073.96 651.804 1075.5 651.9L1258.4 651.2L1342.2 651C1345.6 651.2 1359.94 655.589 1363.24 659.345C1366.44 661.045 1386.9 682.2 1383.5 721.5C1382.9 728.1 1381.6 742.8 1373.2 756.8C1364.4 771.4 1349.6 782.1 1331.5 788.2C1315.5 793.6 1296.8 795.5 1277.4 793.4C1236.4 786 1195.5 778.7 1154.5 771.3V772.8L1154.7 773.5C1154.7 773.5 1159.7 782.9 1164 792.6C1168.3 802.2 1174.3 847.6 1174.3 847.9C1184.1 863.5 1194 884.6 1201.6 911.2C1204.6 921.9 1206.2 930.3 1206.8 933.5C1208.01 940.363 1208.97 948.65 1209.68 958.362C1209.69 958.508 1209.69 958.654 1209.69 958.8C1209.69 962.114 1207.01 964.8 1203.69 964.8C1202.72 964.8 1201.96 964.8 1201.4 964.8L1112.5 964.7L1085.16 964.564C1084.25 964.806 1083.29 964.935 1082.3 964.935L1009.3 964.635H1003.4C997.603 964.635 992.703 960.035 992.403 954.235C991.703 942.535 990.803 927.135 989.703 909.335C986.703 864.435 985.103 850.135 983.303 815.535C983.003 809.735 982.703 804.535 982.503 799.635C981.703 776.335 979.603 754.535 975.503 726.035C973.203 710.235 972.103 700.435 972.003 692.135C971.903 684.435 974.203 676.835 978.603 670.535C980.803 667.435 983.303 664.735 986.303 662.435C994.003 656.535 999.518 652.521 1018.84 652.235C1034.12 652.008 1051.81 652.077 1070.61 652.166Z" fill="#E62E62"/>
<path opacity="0.176986" d="M1071.15 652.086C1070.9 652.12 1070.65 652.158 1070.4 652.2C1063.4 653.4 1055.5 657.5 1049.4 662.2C1046.4 664.5 1043.8 667.2 1041.7 670.3C1037.3 676.5 1035 683.9 1035 691.5V692C1035.1 700.3 1036.2 710.1 1038.4 725.9C1042.5 754.4 1044.6 776.1 1045.4 799.5C1045.6 804.3 1045.9 809.6 1046.2 815.4C1047.9 849.9 1049.6 864.2 1052.6 909.2C1053.8 927 1054.7 942.3 1055.3 954.1C1055.6 959.9 1060.5 964.5 1066.3 964.5H1072.2L1084.83 964.563C1084.02 964.752 1083.17 964.852 1082.3 964.852L1009.3 964.552H1003.4C997.603 964.552 992.703 959.952 992.403 954.152C991.703 942.452 990.803 927.052 989.703 909.252C986.703 864.352 985.103 850.052 983.303 815.452C983.003 809.652 982.703 804.452 982.503 799.552C981.703 776.252 979.603 754.452 975.503 725.952C973.203 710.152 972.103 700.352 972.003 692.052C971.903 684.352 974.203 676.752 978.603 670.452C980.803 667.352 983.303 664.652 986.303 662.352C994.003 656.452 999.518 652.438 1018.84 652.152C1034.27 651.924 1052.14 651.997 1071.15 652.086L1071.15 652.086Z" fill="#444444"/>
<path d="M1154 769.074C1152.76 767.855 1151.47 766.578 1150.12 765.241C1149.75 764.879 1149.75 764.879 1149.39 764.517C1145.58 760.741 1142.46 757.631 1136.41 751.586C1135.63 750.805 1134.37 750.805 1133.59 751.586C1132.8 752.367 1132.8 753.633 1133.59 754.414C1139.63 760.463 1142.76 763.577 1146.57 767.358C1146.94 767.721 1146.94 767.721 1147.3 768.084C1148.66 769.424 1149.95 770.703 1151.2 771.926C1151.99 772.7 1153.25 772.69 1154.03 771.902C1154.8 771.115 1154.79 769.849 1154 769.074Z" fill="#482D1F"/>
<path d="M1285.28 444.659C1291.17 442.66 1297.58 441.72 1304.25 442.073C1330.75 443.373 1351.15 464.473 1349.85 489.173C1349.21 501.249 1343.46 511.951 1334.66 519.553L1356.8 600.5C1360.2 613.3 1359 626.3 1354 637.5C1353.3 639.1 1352.5 640.7 1351.7 642.2C1350.8 643.8 1349.8 645.4 1348.8 646.9C1347.7 648.5 1346.5 650.1 1345.2 651.6H1236.3C1235.4 650.1 1234.5 648.6 1233.7 646.9C1232.9 645.4 1232.2 643.8 1231.6 642.2C1231 640.7 1230.5 639.1 1230 637.5C1229.9 637.2 1229.8 636.9 1229.7 636.6L1201.39 537.917L1180.73 540.192C1178.93 540.392 1177.23 539.192 1177.03 537.492L1176.13 530.492C1176.09 530.179 1176.11 529.873 1176.17 529.58C1172.77 527.517 1169.66 525.041 1167.03 522.192C1163.23 518.092 1160.33 513.292 1158.63 507.792C1151.83 485.992 1166.93 462.692 1192.33 455.892C1202.55 453.155 1212.91 453.48 1222.07 456.267C1225.96 453.567 1230.22 451.489 1234.8 450.2L1256.7 443.7C1266.78 442.205 1276.48 442.551 1285.28 444.659V444.659Z" fill="#2B3FF0"/>
<path opacity="0.176986" d="M1201.24 537.934L1180.73 540.192C1178.93 540.392 1177.23 539.192 1177.03 537.492L1176.13 530.492C1176.09 530.179 1176.11 529.873 1176.17 529.58C1172.77 527.517 1169.66 525.041 1167.03 522.192C1163.23 518.092 1160.33 513.292 1158.63 507.792C1151.83 485.992 1166.93 462.692 1192.33 455.892C1202.61 453.14 1213.02 453.484 1222.22 456.314C1201.53 470.494 1191.27 502.282 1198.11 527.016L1201.24 537.934Z" fill="#444444"/>
<path d="M1183.9 460.3C1183.9 460.3 1182 467.9 1192.1 465.8C1202.2 463.7 1205.1 462.7 1205.1 462.7L1202.5 455.8L1183.9 460.3Z" fill="#482D1F"/>
<path d="M1218.72 440.447C1218.39 440.535 1218.07 440.618 1217.74 440.696L1218.77 440.548L1218.72 440.447ZM1245.49 424.314L1248 423.3L1260.1 444.2L1240.15 450.448L1259.7 543.3C1259.7 543.3 1261.36 536.599 1263.49 524.515C1263.59 524.548 1263.69 524.576 1263.8 524.6L1319.1 536.9C1319.33 536.952 1319.57 536.978 1319.8 536.982C1317.86 544.705 1315.8 553.992 1313.6 563.6C1307.9 588.4 1307 599.9 1297.9 616.3C1287.5 635 1277.9 635.5 1274.1 636.9C1265.6 640.2 1257.1 639.7 1251.8 638.4C1245.44 636.86 1233.79 634.38 1223.91 616.408L1229.7 636.6C1229.8 636.9 1229.9 637.2 1230 637.5C1230.5 639.1 1231 640.7 1231.6 642.2C1232.2 643.8 1232.9 645.4 1233.7 646.9C1234.5 648.6 1235.4 650.1 1236.3 651.6H1249.11L1083.14 651.81C1082.67 651.81 1082.25 651.652 1081.91 651.386C1054.38 634.753 1040.75 622.056 1041.01 613.295C1049.33 612.028 1061.22 610.288 1076.66 608.077C1086.25 606.703 1095.99 606.731 1105.58 608.16L1135.72 612.653C1158.27 605.425 1188.36 595.932 1195.88 594.296L1182.97 539.945L1201.39 537.917L1210.05 568.099C1204.99 532.361 1206.3 495.122 1201.73 459.27L1191.2 459.5C1185 462 1172 466.2 1170.6 457.3C1170.6 457.3 1187.8 450.2 1199.9 445L1200.8 444.2C1201.6 443.5 1202.3 443.1 1203.3 442.8C1203.5 442.7 1203.7 442.7 1203.9 442.7L1208.7 442L1209.37 441.903C1207.78 441.981 1206.67 441.94 1206.27 441.9C1197.91 441.3 1188.17 426 1183.79 403.9C1183.39 402.1 1183.3 400.3 1183.1 398.5L1182.3 380.6C1182.1 376.6 1182.9 372.6 1184.79 369.1C1185.58 367.6 1186.38 366.2 1187.27 365.1C1197.52 351.3 1216.41 352.8 1219.79 353.2C1220.19 353.2 1220.59 353.3 1220.98 353.3C1224.76 354.2 1228.14 354.5 1231.72 354.4C1233.32 354.4 1234.61 355.7 1234.71 357.3L1235.21 382.9C1235.3 385.3 1247.44 380.7 1247.44 380.6C1253.26 376.2 1260.56 399.9 1257.58 403.4C1255.39 405.8 1249.23 409.2 1247.44 409.8C1246.34 410.2 1245.55 411.1 1245.35 412.1C1246.03 417.165 1246.08 421.236 1245.49 424.314Z" fill="#F2A98A"/>
<path opacity="0.2" d="M1182.97 540.028L1201.39 538L1229.7 636.683C1229.8 636.983 1229.9 637.283 1230 637.583C1230.5 639.183 1231 640.783 1231.6 642.283C1232.2 643.883 1232.9 645.483 1233.7 646.983C1234.5 648.683 1235.4 650.183 1236.3 651.683H1249.11L1083.14 651.892C1082.67 651.893 1082.24 651.735 1081.9 651.469C1054.38 634.836 1040.74 622.139 1041 613.378C1049.33 612.111 1061.21 610.371 1076.65 608.16C1086.25 606.786 1095.99 606.813 1105.58 608.242L1135.72 612.736C1158.27 605.508 1188.36 596.015 1195.87 594.379L1182.97 540.028Z" fill="#ED9474"/>
<path d="M1036.48 626.959C1047.21 613.75 1069.3 603.053 1106.28 627.69C1111.92 631.321 1110.01 643.222 1103.8 643.358L1039.88 644.434C1035.07 644.594 1032.9 631.403 1036.48 626.959Z" fill="#474961"/>
<path d="M1276.21 377.233C1289.03 385.654 1301.28 398.029 1299.1 406.2C1297.4 412.8 1291 416.3 1284.5 419.9C1279.25 422.779 1269.56 427.235 1255.6 428.169C1255.6 428.179 1255.6 428.19 1255.6 428.2C1252.3 428.7 1249.1 429.2 1245.8 429.7C1244.1 429.9 1242.5 428.7 1242.4 427C1242.9 423.4 1243.4 419.8 1243.9 416.2C1244.35 414.404 1244.82 412.135 1245.11 409.704C1246.71 409.318 1250.27 408.287 1253 405.1C1256 401.6 1257.6 396.3 1255.6 391.2C1253.8 386.3 1248.8 382.5 1244 382.9C1241.3 383.1 1239.2 384.6 1238.9 384.8C1236.73 386.443 1234.93 388.691 1233.94 390.039C1229.24 388.213 1221.93 384.313 1215.9 376.6C1214.5 374.867 1212.87 372.3 1211 368.9C1201.04 371.159 1192.67 370.592 1185.9 367.2C1187.38 364.384 1189.69 361.836 1192.82 359.559C1197.52 356.142 1198.03 355.729 1203.96 354.064C1207.67 353.022 1214.69 352.69 1219.72 353.2H1219.9C1225.6 353.8 1230.3 354 1233.4 354C1248.6 354.3 1254.5 352.3 1262.2 356.1C1263.6 356.8 1266.9 358.6 1269.8 362C1273.91 366.803 1275.59 372.366 1276.21 377.233ZM1185.62 411.62C1189.41 425.127 1193.43 430.099 1192.92 430.099C1192.41 430.099 1191.08 430.8 1180.78 427.9C1175.68 426.5 1170.88 425.1 1168.68 421C1165.58 415.2 1174.82 403.217 1183.02 395.217C1183.02 401.139 1184 405.605 1185.62 411.62ZM1179.6 391.8C1178.6 391.6 1178.2 390.4 1178.9 389.7C1179.8 388.9 1181.3 387.9 1183.3 387.8C1187.4 387.6 1191.9 390 1187.5 391.4C1184.7 392.4 1181.5 392.1 1179.6 391.8ZM1199 391.8C1198 391.6 1197.6 390.4 1198.4 389.7C1199.3 388.9 1200.8 387.9 1202.9 387.8C1207 387.6 1211.5 390.1 1207.1 391.4C1204.1 392.4 1201 392.1 1199 391.8Z" fill="#482D1F"/>
<path d="M1187.1 399.5C1187.3 401.2 1187.5 404 1186.6 405.2C1185.3 407 1182.2 402.4 1182.9 399.2C1183.2 397.8 1183.9 397.4 1184.7 397.4C1185.9 397.4 1186.9 398.3 1187.1 399.5ZM1204.9 398.9C1205.2 400.6 1205.4 403.4 1204.4 404.6C1203.1 406.4 1200 401.8 1200.7 398.6C1201 397.2 1201.7 396.8 1202.5 396.8C1203.7 396.8 1204.7 397.7 1204.9 398.9Z" fill="#482D1F"/>
<path d="M1258.56 543.825C1258.33 543.031 1258.78 542.196 1259.58 541.961C1260.37 541.727 1261.2 542.18 1261.44 542.975L1271.34 576.475C1271.57 577.269 1271.12 578.104 1270.33 578.338C1269.53 578.573 1268.7 578.12 1268.46 577.325L1258.56 543.825ZM1326.29 526.587C1326.31 526.763 1326.3 526.947 1326.26 527.132L1324.56 534.625C1323.99 537.232 1321.39 538.845 1318.77 538.264C1317.97 538.085 1317.46 537.283 1317.64 536.475C1317.82 535.666 1318.62 535.156 1319.43 535.336C1320.43 535.56 1321.42 534.948 1321.64 533.968L1323.1 527.525C1322.83 527.384 1322.6 527.161 1322.46 526.871C1322.09 526.13 1322.39 525.229 1323.13 524.858C1327.4 522.723 1331.37 519.911 1334.76 516.624C1335.35 516.047 1336.3 516.061 1336.88 516.655C1337.45 517.249 1337.44 518.199 1336.85 518.776C1333.72 521.807 1330.14 524.456 1326.29 526.587ZM1264.49 513.23C1264.49 513.297 1264.48 513.364 1264.46 513.432L1262.76 520.925C1262.54 521.934 1263.15 522.919 1264.13 523.136C1264.93 523.315 1265.44 524.117 1265.26 524.925C1265.08 525.734 1264.28 526.244 1263.47 526.064C1260.87 525.485 1259.26 522.886 1259.84 520.268L1261.54 512.768C1261.6 512.478 1261.75 512.226 1261.95 512.032C1260.77 510.606 1259.88 509.355 1259.14 508.085C1258.47 506.945 1257.92 505.777 1257.33 504.316C1256.93 503.321 1256.68 502.652 1255.79 500.213C1255.51 499.434 1255.91 498.573 1256.69 498.29C1257.47 498.007 1258.33 498.409 1258.61 499.187C1259.48 501.588 1259.73 502.243 1260.11 503.193C1260.65 504.528 1261.14 505.569 1261.73 506.573C1262.51 507.916 1263.5 509.26 1264.94 510.92C1265.48 511.547 1265.41 512.494 1264.78 513.035C1264.69 513.112 1264.6 513.177 1264.49 513.23ZM1225.69 438.715C1221.99 440.415 1219.47 443.422 1213.7 444C1209.1 445.1 1205.2 443.8 1203.2 442.8C1203.4 442.7 1203.6 442.7 1203.8 442.7L1208.6 442C1210.9 442 1214.6 441.6 1218.9 440.4L1225.69 438.715Z" fill="#482D1F"/>
<path d="M1199.8 419.1C1200.5 418.9 1202.2 418.3 1202.5 417.2C1202.5 417 1202.6 416.7 1202.5 416.5C1202.1 415.9 1200.8 416.2 1199 416.4C1195.8 416.7 1193.2 416.4 1193.2 416.4C1193.2 416.4 1194 418.4 1194.5 418.9C1195.6 420.5 1198.8 419.5 1199.8 419.1Z" fill="#482D1F"/>
<path d="M1192.3 400.334L1192.31 400.189L1192.3 400.261L1192.3 400.334ZM1191.11 410.889L1191.1 411C1191.1 412.091 1191.85 413.105 1192.94 413.286C1193.14 413.306 1193.25 413.314 1193.36 413.321C1194.42 413.39 1195.18 413.4 1197.9 413.4C1198.45 413.4 1198.9 412.952 1198.9 412.4C1198.9 411.848 1198.45 411.4 1197.9 411.4C1195.22 411.4 1194.49 411.39 1193.49 411.325C1193.39 411.318 1193.28 411.311 1193.18 411.303C1193.2 411.303 1193.12 411.187 1193.1 411.039L1194.29 400.411L1194.3 400.266L1194.1 394.366C1194.08 393.814 1193.62 393.382 1193.07 393.401C1192.51 393.419 1192.08 393.882 1192.1 394.434L1192.3 400.261L1191.11 410.889Z" fill="#482D1F"/>
</g>
<path d="M182.992 1025.1C182.893 1025.04 182.795 1024.97 182.7 1024.9L82.3002 950.1C80.3002 948.6 79.9002 945.7 81.4002 943.7C82.9002 941.7 85.8002 941.3 87.8002 942.8L187.126 1016.8H241.2C243.7 1016.8 245.8 1018.9 245.8 1021.4C245.8 1023.9 243.7 1026 241.2 1026H185.7C184.683 1026 183.749 1025.67 182.992 1025.1ZM502.7 1026H343.8C341.3 1026 339.3 1024 339.3 1021.5C339.3 1019 341.3 1017 343.8 1017H502.7C505.2 1017 507.2 1019 507.2 1021.5C507.2 1024 505.2 1026 502.7 1026Z" fill="#FF9900"/>
<path d="M503.711 1017.36C503.242 1017.2 502.736 1017.11 502.208 1017.11H343.308C342.888 1017.11 342.483 1017.16 342.099 1017.27C341.779 1016.62 341.6 1015.88 341.6 1015.1L340.1 959.8C339.9 956.8 342.2 954.5 345.1 954.4L413.8 954C414.9 954 415.9 954.3 416.8 955C428.2 967.2 439.1 974 447 978C453.1 981.1 473.5 989.7 482.7 993.9C487.4 996 491.9 998.5 496.3 1001.2C496.6 1001.4 496.8 1001.5 497.1 1001.8C499.4 1003.9 502.9 1007.7 504.2 1012.2C504.4 1012.8 504.4 1013.3 504.5 1013.9C504.6 1014.4 504.5 1014.9 504.5 1015.4V1015.5C504.357 1016.19 504.084 1016.81 503.711 1017.36ZM242.731 1017.39C242.117 1017.08 241.429 1016.91 240.708 1016.91H186.634L87.6846 943.188L125 890.3L185.2 934C188.5 945.2 191.9 956.4 195.3 967.7C197.1 973.6 198.9 979.4 200.7 985.2C206.3 987.4 211.1 989.4 214.5 990.9C221 993.7 226.5 996.3 232.5 1000.2C232.5 1000.2 237.7 1003.4 240.6 1008C241.5 1009.5 242.3 1011.2 242.8 1013C243 1013.8 243 1014.6 243.1 1015.3C243.069 1015.96 242.92 1016.69 242.731 1017.39Z" fill="#444444"/>
<path d="M369.348 654.392L396.66 654.034C404.86 653.534 415.16 658.634 422.86 664.434C424.46 665.634 425.86 666.934 427.16 668.334C428.36 669.634 429.56 671.034 430.56 672.534C434.96 678.834 437.26 686.334 437.16 694.034C436.96 710.734 434.96 723.734 433.66 728.034C425.16 754.334 403.36 853.034 425.26 895.734C425.26 895.734 436.36 917.234 433.96 933.334C433.035 939.804 429.48 947.373 428.367 949.626C428.393 949.661 428.419 949.695 428.444 949.728C420.087 961.785 316.266 979.5 236.5 953.3C225.605 949.721 209.7 945.6 191.5 937.5C190.7 937.2 189.9 936.8 189.2 936.3C176.9 928.4 164.6 920.6 152.3 912.7L121.4 892.9C115.5 889.1 113.8 881.5 117.6 876L142.7 839.4L157.7 817.5C161.9 811.3 166.3 804.9 170.8 798.4C172.941 798.468 169.075 798.302 159.2 797.9C124.775 796.5 79.9002 789.9 62.9002 762.6C54.3002 748.7 52.8002 734.1 52.1002 727.4C48.2002 688.3 67.7077 668.159 74.1002 661.8C78.3618 657.561 89.0915 650.759 106.289 641.394L218.254 648L326.3 652C326.483 651.909 348.917 650.258 369.348 654.392Z" fill="#2B3FF0"/>
<path opacity="0.176986" d="M369 654.397L396.659 654.034C404.859 653.534 415.159 658.634 422.859 664.434C424.459 665.634 425.859 666.934 427.159 668.334C428.359 669.634 429.559 671.034 430.559 672.534C434.959 678.834 437.259 686.334 437.159 694.034C436.959 710.734 434.959 723.734 433.659 728.034C425.159 754.334 403.359 853.034 425.259 895.734C425.259 895.734 436.359 917.234 433.959 933.334C433.021 939.905 429.368 947.61 428.317 949.728C419.304 937.675 383.637 882.659 397.77 788.606C398.17 786.206 406.942 734.361 406.942 720.061C406.942 668.416 394.434 661.068 372.741 655.306C371.508 654.978 370.26 654.676 369 654.397Z" fill="#8C2A00"/>
<path d="M216.732 731.597C211.798 739.06 206.602 746.311 193.985 763.57C181.327 780.886 176.114 788.16 171.132 795.697C170.523 796.618 170.776 797.859 171.697 798.468C172.618 799.078 173.859 798.824 174.468 797.903C179.402 790.44 184.598 783.189 197.215 765.93C209.873 748.614 215.086 741.34 220.068 733.803C220.678 732.882 220.424 731.641 219.503 731.032C218.582 730.422 217.341 730.676 216.732 731.597Z" fill="#482D1F"/>
<path d="M166.158 459.097C173.959 458.568 183.974 460.013 192.6 468.315C201 476.315 197 483.315 209.6 504.715C215.9 515.315 221.9 522.315 219.7 528.915C218.9 531.382 216.533 533.682 212.6 535.815C203.867 536.949 198.5 537.615 196.5 537.815C195.962 537.864 195.345 537.925 194.711 537.99L193.1 566.2L193 567.2L190.2 616.9L189.6 626.6C189.6 627.4 189.5 628.1 189.4 628.9C189.3 629.8 189.2 630.6 189.1 631.5C188.8 633.8 188.3 636 187.7 638.2C187.4 639.1 187.2 640 186.8 640.9L84.6001 640.1L73.6533 537.99C65.5499 537.712 56.9322 537.415 47.8001 537.1C42.9335 535.3 40.0001 533.2 39.0001 530.8C36.3001 524.3 43.9001 516.7 51.8001 505.3C67.7001 482.5 62.8001 475.8 73.2001 466.9C86.9835 455.099 101.041 453.339 110.565 453.983C110.776 453.921 110.988 453.86 111.2 453.8C116.2 452.4 121.6 451.8 127.1 452.1L149.1 453.5C155.166 453.824 160.905 455.848 166.158 459.097Z" fill="#E62E62"/>
<path opacity="0.176986" d="M165.795 459.123C173.647 458.525 183.839 459.884 192.6 468.315C201 476.315 197 483.315 209.6 504.715C215.9 515.315 221.9 522.315 219.7 528.915C218.9 531.382 216.533 533.682 212.6 535.815C203.867 536.949 198.5 537.615 196.5 537.815C195.835 537.876 195.051 537.955 194.262 538.035L195.756 511.875C194.056 492.975 183.956 472.675 169.356 461.575C168.196 460.696 167.009 459.877 165.795 459.123Z" fill="#444444"/>
<path d="M190.921 596.193L192.556 567.175L192.656 566.175L194.272 537.867L210.873 535.833L216.04 598.344C227.059 599.245 238.147 600.097 249.3 600.9C261.4 601.8 273.5 602.6 285.4 603.3C287.043 602.342 300.747 601.08 316.537 603.3C321.39 603.982 328.511 605.975 337.9 609.278C355.7 614.489 367.644 618.19 373.732 620.379C382.864 623.663 373.732 629.8 361 629.8C358.44 629.8 321.947 631.143 311.342 632.634C311.522 632.609 311.71 632.584 311.904 632.559L318.154 634.257C321.372 635.045 324.445 636.239 327.455 637.935C330.14 639.442 332.824 640.949 335.509 642.457C336.243 642.931 336.909 643.708 337.262 644.697C338.403 647.659 338.062 653.011 335.509 653L180.467 648.236C183.068 648.043 185.665 647.842 188.262 647.633C164.435 649.386 140.558 650.47 113.5 650.3C97.6999 650.2 93.6999 649.7 88.8999 647.2C68.2999 636.5 64.2999 605.5 60.9999 578.4C59.6398 567.896 58.6222 554.081 59.2849 537.644C91.0769 538.739 115.957 539.584 133.925 540.179C133.919 540.989 133.911 541.763 133.9 542.5C133.8 552.9 133.5 562.5 134.4 576.7C134.8 582.6 134.9 587.5 135.1 590.7C153.491 592.678 172.102 594.508 190.921 596.193V596.193ZM158.006 448.038L156.645 453.312C161.325 455.07 165.385 458.353 169.8 461.7C169.2 464.3 168.1 466.1 166.8 467.4C158.9 475.3 133.633 468.6 109.133 453.6C111.151 453.035 116.595 450.816 126.3 450.55C127.082 450.529 127.998 450.528 129.048 450.548C131.384 445.717 133.628 441.35 136.079 435.947C136.041 435.926 136.015 435.91 136 435.9L138.5 417.7C138.4 416.6 138.7 417.5 137.7 417.1C135.2 416.2 133 414.5 131.3 412.3C128.4 408.3 127.8 402.7 129.8 397.7C132.1 393 137.6 389.6 142.4 390.4C144.2 390.7 145.8 391.5 147.3 392.7L147.4 392.8C147.9 393.3 148.6 393.5 149.2 393.6C150.9 393.7 152.4 392.6 152.6 390.9L155.4 364.9C155.5 363.2 154.499 362.467 156.199 362.567C158.666 362.767 162.744 362.767 168.434 362.567C168.934 362.567 172.791 362.567 173.191 362.567C175.581 362.967 193.9 362 203.2 377C204 378.5 204.8 379.9 205.4 381.4C206.9 385.1 207.4 389.2 206.9 393.3L204.5 411.4C204.2 413.2 203.8 415 203.3 416.8C196.9 438.9 185.6 453.7 177 453.6C172.6 453.4 168.2 452.6 164.1 451C163.562 450.731 163.908 450.944 158.006 448.038Z" fill="#F2A98A"/>
<path opacity="0.2" d="M190.434 596.72L192.089 567.342L192.189 566.342L193.808 537.987L210.874 535.833L215.658 598.88C207.21 598.189 198.801 597.469 190.434 596.72ZM311.871 632.672L317.545 634.203C320.763 634.991 323.943 636.032 326.954 637.728C329.638 639.235 332.824 640.949 335.509 642.457C336.244 642.931 336.909 643.708 337.262 644.697C338.403 647.659 338.062 653.011 335.509 653L180.082 648.396C200.942 646.851 221.507 644.749 243.856 642.623C250.756 642.023 307.522 634.123 310.722 632.823C311.075 632.772 311.459 632.721 311.871 632.672Z" fill="#8C2A00"/>
<path d="M122.451 593.192C121.627 593.276 120.891 592.676 120.808 591.852C120.724 591.027 121.324 590.291 122.148 590.208L134.948 588.908C135.773 588.824 136.509 589.424 136.592 590.248C136.676 591.073 136.076 591.809 135.251 591.892L122.451 593.192ZM133.546 540.778C132.73 540.638 132.181 539.863 132.322 539.046C132.462 538.23 133.237 537.681 134.054 537.822C134.087 537.827 134.179 537.84 134.322 537.854C135.615 537.979 137.113 537.849 138.493 537.281C141.005 536.247 142.578 533.974 142.802 529.819C143.092 524.461 142.872 520.2 142.334 516.962C142.207 516.196 142.072 515.556 141.939 515.038C141.864 514.745 141.81 514.567 141.786 514.501C141.509 513.72 141.918 512.863 142.699 512.586C143.48 512.309 144.337 512.718 144.614 513.499C144.797 514.016 145.049 514.997 145.294 516.47C145.868 519.928 146.099 524.409 145.798 529.981C145.511 535.277 143.23 538.575 139.635 540.055C137.733 540.838 135.771 541.008 134.033 540.84C133.814 540.819 133.649 540.796 133.546 540.778Z" fill="#482D1F"/>
<path d="M158.4 447.6L148.1 443.1L155.4 458L158.4 447.6Z" fill="#482D1F"/>
<path d="M154.56 409.021L151.8 399.2C150.9 396.8 149.4 394.7 147.5 393C146 391.8 144.4 391 142.6 390.7C137.8 389.9 132.3 393.3 130 398C127.8 402.7 128.3 408.3 131.5 412.3C133.464 414.95 136.198 416.83 139.419 417.655C138.027 425.404 136 436.1 136 436.1C136 436.1 133.543 434.959 128.629 432.678C116.728 426.025 110.261 413.613 109.229 395.442C89.8582 402.906 71.3448 397.696 64.1003 386.6C58.6003 378.1 59.8102 366.774 60.2003 365.2C64.1003 349.464 77.5003 347.1 77.5003 347.1C77.5003 347.1 96.8003 337.2 117.4 367.4C117.478 367.515 117.556 367.63 117.634 367.747C119.878 365.429 122.648 363.738 125.6 362.5C133.9 359.1 139.8 361.5 155.6 362.2C158.8 362.4 163.6 362.5 169.6 362.3C170.1 362.3 170.5 362.3 170.9 362.3C174.5 362.2 193.966 362.099 203.266 377.099C203.166 377.399 203.026 377.678 202.8 378.1C202.8 378.1 183.49 411.446 154.56 409.021ZM192.8 406C190.8 406.2 187.5 406.3 184.9 405.2C180.4 403.5 185.2 401.4 189.4 401.8C191.4 401.9 192.8 403 193.7 403.9C194.3 404.7 193.8 405.9 192.8 406ZM209.7 408.1C207.6 408.5 204.5 408.9 201.7 408C197 406.7 201.5 404.1 205.8 404.2C208 404.3 209.4 405.1 210.4 406C211.1 406.7 210.7 407.9 209.7 408.1Z" fill="#482D1F"/>
<path d="M200.7 418.5C200 417.2 200.7 414.5 201.2 412.8C201.5 411.6 202.8 410.9 203.9 411.1C204.6 411.3 205.4 411.8 205.4 413.2C205.6 416.6 201.6 420.7 200.7 418.5ZM184.3 416.2C183.5 414.9 184.3 412.2 184.8 410.5C185.1 409.3 186.4 408.6 187.5 408.8C188.2 409 189 409.5 189 410.9C189.2 414.3 185.3 418.4 184.3 416.2Z" fill="#482D1F"/>
<path d="M200.759 410.786C200.916 410.257 200.615 409.7 200.086 409.542C199.557 409.384 199 409.685 198.842 410.214L197.142 415.914L197.113 416.042L195.413 426.642C195.407 426.68 195.32 426.736 195.142 426.71C194.103 426.462 192.898 426.163 191.613 425.832C191.078 425.694 190.533 426.015 190.395 426.55C190.257 427.085 190.578 427.63 191.113 427.768C192.411 428.103 193.631 428.405 194.771 428.673C196.067 428.863 197.192 428.132 197.387 426.964L199.077 416.423L200.759 410.786Z" fill="#482D1F"/>
<path d="M158.4 448.1L150.6 444.2L154 462.6L158.4 448.1Z" fill="#482D1F"/>
<path d="M188.2 435.6C187.5 435.4 185.8 434.8 185.6 433.6C185.6 433.4 185.5 433.1 185.6 432.9C185.9 432.4 189.1 432.9 189.1 432.9C193.1 433.6 194.2 433.5 194.4 434.1C194.5 434.4 194.4 434.8 193.5 435.6C192.4 437.1 189.2 436 188.2 435.6Z" fill="#482D1F"/>
<path d="M876.274 627.002L885.891 588.2H813.701C806.201 588.2 800 582.5 800 575.6V465.7C799.901 458.7 806.001 453 813.601 453H1033.3C1040.8 453 1047 458.7 1047 465.6V575.6C1047 582.5 1040.8 588.2 1033.3 588.2H945.326L941.356 627.002H967.403C971.403 627.002 974.503 630.202 974.503 634.102C974.503 638.102 971.303 641.202 967.403 641.202H855.903C851.903 641.202 848.803 638.002 848.803 634.102C848.603 630.202 851.903 627.002 855.903 627.002H876.274Z" fill="#474961"/>
<path fill-rule="evenodd" clip-rule="evenodd" d="M948.306 559.919L948.602 627.102H941.433L948.306 559.919Z" fill="white"/>
<path d="M435.452 637.509C434.455 639.27 432.565 640.46 430.4 640.46H286.7C283.5 640.46 281 637.86 281 634.66C281 631.46 283.6 628.86 286.7 628.86H426.475L475.2 497.76C476.3 494.76 479.6 493.26 482.6 494.36C485.6 495.46 487.1 498.76 486 501.76L435.9 636.56C435.777 636.896 435.626 637.213 435.452 637.509Z" fill="#474961"/>
<path d="M1365 641H88C84.134 641 81 644.134 81 648C81 651.866 84.134 655 88 655H1365C1368.87 655 1372 651.866 1372 648C1372 644.134 1368.87 641 1365 641Z" fill="#D8DEED"/>
<path d="M529.704 7H175.296C172.923 7 171 8.91977 171 11.2879V280.712C171 283.08 172.923 285 175.296 285H529.704C532.077 285 534 283.08 534 280.712V11.2879C534 8.91977 532.077 7 529.704 7Z" fill="#F2F6FB"/>
<path d="M455.829 156.362H477.567C480.759 156.362 481.916 156.694 483.083 157.317C484.25 157.94 485.165 158.854 485.789 160.018C486.413 161.183 486.746 162.338 486.746 165.524V285H446.651V165.524C446.651 162.338 446.983 161.183 447.607 160.018C448.231 158.854 449.147 157.94 450.314 157.317C451.48 156.694 452.638 156.362 455.829 156.362Z" fill="#D8DEED"/>
<path d="M410.007 187.093H432.46C435.652 187.093 436.809 187.424 437.976 188.047C439.143 188.67 440.058 189.584 440.682 190.749C441.306 191.913 441.639 193.068 441.639 196.254V285H400.828V196.254C400.828 193.068 401.16 191.913 401.784 190.749C402.408 189.584 403.324 188.67 404.491 188.047C405.658 187.424 406.815 187.093 410.007 187.093Z" fill="#D8DEED"/>
<path d="M364.9 91.329H386.638C389.829 91.329 390.987 91.6607 392.154 92.2836C393.32 92.9064 394.236 93.8204 394.86 94.985C395.484 96.1497 395.816 97.3049 395.816 100.49V285H355.722V100.49C355.722 97.3049 356.054 96.1497 356.678 94.985C357.302 93.8204 358.218 92.9064 359.384 92.2836C360.551 91.6607 361.709 91.329 364.9 91.329Z" fill="#E1E5F0"/>
<path d="M319.078 116.342H340.816C344.007 116.342 345.165 116.674 346.331 117.296C347.498 117.919 348.414 118.833 349.038 119.998C349.662 121.163 349.994 122.318 349.994 125.503V285H309.899V125.503C309.899 122.318 310.232 121.163 310.856 119.998C311.48 118.833 312.395 117.919 313.562 117.296C314.729 116.674 315.886 116.342 319.078 116.342Z" fill="#D8DEED"/>
<path d="M273.971 174.943H295.709C298.9 174.943 300.058 175.275 301.224 175.898C302.391 176.521 303.307 177.435 303.931 178.599C304.555 179.764 304.887 180.919 304.887 184.105V285H264.792V184.105C264.792 180.919 265.125 179.764 265.749 178.599C266.373 177.435 267.288 176.521 268.455 175.898C269.622 175.275 270.779 174.943 273.971 174.943Z" fill="#D8DEED"/>
<path d="M228.149 145.643H249.886C253.078 145.643 254.235 145.974 255.402 146.597C256.569 147.22 257.485 148.134 258.109 149.299C258.733 150.463 259.065 151.618 259.065 154.804V285H218.97V154.804C218.97 151.618 219.303 150.463 219.927 149.299C220.551 148.134 221.466 147.22 222.633 146.597C223.8 145.974 224.957 145.643 228.149 145.643Z" fill="#D8DEED"/>
<path d="M1188.68 0H854.32C846.411 0 840 6.39922 840 14.2931V263.707C840 271.601 846.411 278 854.32 278H1188.68C1196.59 278 1203 271.601 1203 263.707V14.2931C1203 6.39922 1196.59 0 1188.68 0Z" fill="#F2F6FB"/>
<path d="M896.27 220.847L950.459 138.762C955.602 130.969 966.876 130.166 973.059 137.15L994.922 161.78C1004.9 172.998 1022.98 171.278 1030.61 158.403L1082.75 70.2632C1087.97 61.4338 1100.43 60.8259 1106.58 69.0718L1161.88 144.161C1163.17 145.91 1165.63 146.285 1167.39 145C1169.14 143.714 1169.51 141.254 1168.23 139.504L1112.91 64.3976C1103.4 51.6386 1084.05 52.582 1075.97 66.2676L1023.83 154.404C1018.92 162.686 1007.25 163.797 1000.81 156.564L978.957 131.941C969.341 121.078 951.877 122.323 943.882 134.438L889.694 216.521C888.497 218.334 889 220.772 890.816 221.966C892.632 223.16 895.074 222.659 896.27 220.847Z" fill="#E1E5F0"/>
<path d="M918.4 192.242C924.924 192.242 930.213 186.962 930.213 180.45C930.213 173.937 924.924 168.658 918.4 168.658C911.875 168.658 906.586 173.937 906.586 180.45C906.586 186.962 911.875 192.242 918.4 192.242Z" fill="#FF9900"/>
<path d="M1050.14 128.638C1056.66 128.638 1061.95 123.358 1061.95 116.846C1061.95 110.333 1056.66 105.054 1050.14 105.054C1043.61 105.054 1038.33 110.333 1038.33 116.846C1038.33 123.358 1043.61 128.638 1050.14 128.638Z" fill="#2B3FF0"/>
<path d="M849.68 32H515.32C507.411 32 501 38.3992 501 46.2931V295.707C501 303.601 507.411 310 515.32 310H849.68C857.589 310 864 303.601 864 295.707V46.2931C864 38.3992 857.589 32 849.68 32Z" fill="#F2F6FB"/>
<path d="M716.736 241.514C751.883 221.264 763.953 176.464 743.694 141.449C723.436 106.434 678.521 94.4643 643.374 114.714C608.227 134.964 596.157 179.764 616.415 214.779C636.674 249.794 681.589 261.764 716.736 241.514ZM704.979 221.194C681.067 234.971 650.534 226.834 636.774 203.05C623.013 179.266 631.218 148.81 655.13 135.034C679.042 121.257 709.575 129.394 723.336 153.178C737.097 176.962 728.891 207.417 704.979 221.194Z" fill="#E1E5F0"/>
<path d="M637.496 104.554C596.732 128.04 582.73 180.014 606.237 220.644C629.744 261.274 681.85 275.16 722.614 251.674C763.379 228.188 777.381 176.214 753.874 135.584L733.516 147.313C750.525 176.713 740.388 214.341 710.858 231.354C681.329 248.367 643.604 238.314 626.595 208.915C609.586 179.515 619.723 141.887 649.253 124.874L637.496 104.554Z" fill="#4CAF50"/>
<path d="M501 46.2962C501 38.4006 507.416 32 515.314 32H849.686C857.591 32 864 38.4012 864 46.2962V63.4447H501V46.2962Z" fill="#E1E5F0"/>
<path d="M522.121 54.8689C525.878 54.8689 528.923 51.8293 528.923 48.0797C528.923 44.3301 525.878 41.2905 522.121 41.2905C518.365 41.2905 515.319 44.3301 515.319 48.0797C515.319 51.8293 518.365 54.8689 522.121 54.8689Z" fill="#FF5645"/>
<path d="M544.316 54.8689C548.073 54.8689 551.118 51.8293 551.118 48.0797C551.118 44.3301 548.073 41.2905 544.316 41.2905C540.56 41.2905 537.515 44.3301 537.515 48.0797C537.515 51.8293 540.56 54.8689 544.316 54.8689Z" fill="#FFCB3D"/>
<path d="M567.228 54.8689C570.985 54.8689 574.03 51.8293 574.03 48.0797C574.03 44.3301 570.985 41.2905 567.228 41.2905C563.472 41.2905 560.426 44.3301 560.426 48.0797C560.426 51.8293 563.472 54.8689 567.228 54.8689Z" fill="#3ABF7C"/>
<defs>
<clipPath id="clip0">
<rect width="330" height="520" fill="white" transform="translate(519 504)"/>
</clipPath>
<clipPath id="clip1">
<rect width="331" height="515" fill="white" transform="translate(1101 509)"/>
</clipPath>
<clipPath id="clip2">
<rect width="522" height="756" fill="white" transform="translate(896 268)"/>
</clipPath>
</defs>
</svg>
